<svg width="18" height="18" viewBox="0 0 18 18" fill="#fff" xmlns="http://www.w3.org/2000/svg">
<g clip-path="url(#clip0_15_73)">
<g filter="url(#filter0_dii_15_73)">
<path d="M9.06477 16.843L4.61511 12.3933C3.73506 11.5132 3.13574 10.392 2.89294 9.1713C2.65014 7.95063 2.77477 6.68538 3.25105 5.53553C3.72733 4.38569 4.53389 3.4029 5.56872 2.71145C6.60356 2.02 7.82019 1.65094 9.06477 1.65094C10.3094 1.65094 11.526 2.02 12.5608 2.71145C13.5957 3.4029 14.4022 4.38569 14.8785 5.53553C15.3548 6.68538 15.4794 7.95063 15.2366 9.1713C14.9938 10.392 14.3945 11.5132 13.5144 12.3933L9.06477 16.843ZM12.5258 11.4046C13.2102 10.7201 13.6763 9.84803 13.8651 8.89863C14.0539 7.94924 13.957 6.96517 13.5865 6.07087C13.2161 5.17658 12.5887 4.41221 11.7839 3.87444C10.979 3.33666 10.0328 3.04962 9.06477 3.04962C8.09678 3.04962 7.15053 3.33666 6.34567 3.87444C5.54081 4.41221 4.91349 5.17658 4.54303 6.07087C4.17257 6.96517 4.07562 7.94924 4.26443 8.89863C4.45324 9.84803 4.91933 10.7201 5.60377 11.4046L9.06477 14.8656L12.5258 11.4046ZM9.06477 9.34201C8.6939 9.34201 8.33821 9.19468 8.07597 8.93243C7.81372 8.67018 7.66639 8.3145 7.66639 7.94362C7.66639 7.57275 7.81372 7.21706 8.07597 6.95482C8.33821 6.69257 8.6939 6.54524 9.06477 6.54524C9.43565 6.54524 9.79133 6.69257 10.0536 6.95482C10.3158 7.21706 10.4632 7.57275 10.4632 7.94362C10.4632 8.3145 10.3158 8.67018 10.0536 8.93243C9.79133 9.19468 9.43565 9.34201 9.06477 9.34201Z" fill="white"/>
</g>
</g>
<defs>
<filter id="filter0_dii_15_73" x="-40.9679" y="-33.0394" width="94.0323" height="96.6389" filterUnits="userSpaceOnUse" color-interpolation-filters="white">
<feFlood flood-opacity="0" result="BackgroundImageFix"/>
<feColorMatrix in="SourceAlpha" type="matrix" values="0 0 0 0 0 0 0 0 0 0 0 0 0 0 0 0 0 0 127 0" result="hardAlpha"/>
<feMorphology radius="3.01655" operator="dilate" in="SourceAlpha" result="effect1_dropShadow_15_73"/>
<feOffset dx="-3.01655" dy="6.0331"/>
<feGaussianBlur stdDeviation="18.8534"/>
<feColorMatrix type="matrix" values="0 0 0 0 0 0 0 0 0 0 0 0 0 0 0 0 0 0 0.1 0"/>
<feBlend mode="normal" in2="BackgroundImageFix" result="effect1_dropShadow_15_73"/>
<feBlend mode="normal" in="SourceGraphic" in2="effect1_dropShadow_15_73" result="shape"/>
<feColorMatrix in="SourceAlpha" type="matrix" values="0 0 0 0 0 0 0 0 0 0 0 0 0 0 0 0 0 0 127 0" result="hardAlpha"/>
<feOffset dx="-4.52482" dy="3.01655"/>
<feGaussianBlur stdDeviation="1.50827"/>
<feComposite in2="hardAlpha" operator="arithmetic" k2="-1" k3="1"/>
<feColorMatrix type="matrix" values="0 0 0 0 1 0 0 0 0 1 0 0 0 0 1 0 0 0 0.25 0"/>
<feBlend mode="normal" in2="shape" result="effect2_innerShadow_15_73"/>
<feColorMatrix in="SourceAlpha" type="matrix" values="0 0 0 0 0 0 0 0 0 0 0 0 0 0 0 0 0 0 127 0" result="hardAlpha"/>
<feOffset dx="1.50827" dy="-2.26241"/>
<feGaussianBlur stdDeviation="2.26241"/>
<feComposite in2="hardAlpha" operator="arithmetic" k2="-1" k3="1"/>
<feColorMatrix type="matrix" values="0 0 0 0 0 0 0 0 0 0 0 0 0 0 0 0 0 0 0.25 0"/>
<feBlend mode="normal" in2="effect2_innerShadow_15_73" result="effect3_innerShadow_15_73" fill="white"/>
</filter>
<clipPath id="clip0_15_73">
<rect width="16.7806" height="16.7806" fill="white" transform="translate(0.674438 0.252563)"/>
</clipPath>
</defs>
</svg>
